<svg xmlns="http://www.w3.org/2000/svg" viewBox="0 0 786 786" style="fill-rule:evenodd;clip-rule:evenodd;stroke-linejoin:round;stroke-miterlimit:2;">
  <g id="VENTILADOR">

    <path id="BASE" d="M669.372,263.803c16.204,40.068 25.128,83.849 25.128,129.697c0,191.239 -155.261,346.5 -346.5,346.5c-191.239,0 -346.5,-155.261 -346.5,-346.5c0,-191.239 155.261,-346.5 346.5,-346.5c29.888,0 58.897,3.792 86.572,10.922l261.783,0c3.516,-8.184 11.652,-13.922 21.118,-13.922l45.947,0c12.679,0 22.973,10.294 22.973,22.973l0,187.778c0,12.679 -10.294,22.973 -22.973,22.973l-45.947,0c-9.466,0 -17.602,-5.737 -21.118,-13.921l-26.983,0Zm-321.372,-167.803c-164.195,0 -297.5,133.305 -297.5,297.5c0,164.195 133.305,297.5 297.5,297.5c164.195,0 297.5,-133.305 297.5,-297.5c0,-164.195 -133.305,-297.5 -297.5,-297.5Z" style="fill:#f20d0d;" />

    <g id="HELICE">
      <path d="M259.073,463.807c-7.176,4.078 -34.26,18.585 -69.714,26.686c-41.492,9.48 -61.811,7.7 -77.499,-6.777c-15.688,-14.478 -18.385,-43.667 -19.167,-52.026c-0.869,-9.305 -1.484,-46.387 0.476,-64.759c1.569,-14.697 9.943,-23.569 19.873,-25.101c9.93,-1.532 18.488,2.486 31.101,10.281c35.311,21.82 73.873,29.318 90.898,31.574c0.497,-5.792 1.431,-11.46 2.768,-16.971c-9.434,-3.93 -35.962,-15.994 -62.651,-37.377c-33.216,-26.612 -44.451,-43.635 -42.86,-64.924c1.591,-21.288 22.781,-41.543 28.843,-47.35c6.749,-6.465 35.417,-29.995 51.027,-39.878c12.489,-7.906 24.644,-6.86 32.016,-0.033c7.372,6.827 9.543,16.028 11.277,30.754c4.779,40.599 22.401,75.034 31.354,90.147c4.658,-2.994 9.549,-5.656 14.64,-7.954c-2.942,-10.281 -9.895,-38.12 -9.936,-71.711c-0.053,-42.561 6.185,-61.98 23.778,-74.071c17.594,-12.091 46.655,-8.255 54.979,-7.165c9.266,1.214 45.564,8.83 63.045,14.812c13.984,4.785 20.78,14.917 20.074,24.94c-0.706,10.023 -6.52,17.477 -16.916,28.051c-29.048,29.545 -44.898,65.41 -50.894,81.555c5.439,1.913 10.688,4.229 15.713,6.912c5.677,-8.019 23.447,-31.555 50.595,-53.127c33.322,-26.478 52.416,-33.652 72.82,-27.374c20.403,6.277 35.448,31.436 39.764,38.636c4.805,8.016 21.383,41.193 27.553,58.608c4.936,13.932 1.217,25.551 -7.076,31.224c-8.294,5.672 -17.748,5.745 -32.491,4.166c-42.619,-4.565 -81.765,6.14 -97.145,11.307c1.705,4.988 3.072,10.133 4.072,15.406c7.529,-0.553 38.704,-2.137 74.838,6.025c41.515,9.379 59.07,19.763 66.963,39.598c7.892,19.835 -2.288,47.325 -5.194,55.2c-3.237,8.768 -18.705,42.476 -28.411,58.197c-7.765,12.577 -19.151,16.959 -28.768,14.05c-9.617,-2.909 -15.598,-10.231 -23.606,-22.71c-23.843,-37.16 -58.005,-61.296 -70.862,-69.372c-2.895,4.655 -6.118,9.086 -9.637,13.259c2.962,3.137 25.413,27.51 42.622,63.314c18.437,38.36 21.203,58.569 10.561,77.075c-10.642,18.505 -38.508,27.603 -46.486,30.216c-8.881,2.91 -44.906,11.725 -63.255,13.884c-14.68,1.726 -25.187,-4.474 -28.881,-13.818c-3.694,-9.344 -1.671,-18.579 3.135,-32.606c14.321,-41.795 12.004,-83.587 10.347,-98.603c-2.229,-20.183 -19.099,-35.696 -22.991,-39.3c-2.942,-2.723 -16.141,-13.994 -26.271,-22.004c-8.111,-6.812 -14.039,-5.899 -17.496,0.027c-3.457,5.926 -3.438,11.932 -3.427,12.453c0.021,1.015 0.021,5.072 -0.034,12.456c-0.082,11.039 -0.182,24.665 -0.182,35.715c0,11.051 0.098,24.678 0.18,35.719c0.055,7.383 0.055,11.44 0.034,12.455c-0.011,0.521 -0.03,6.527 3.427,12.453c3.457,5.925 9.384,6.838 17.496,0.027c10.13,-8.009 23.329,-19.281 26.271,-22.004c3.892,-3.604 20.762,-19.117 22.991,-39.3c1.657,-15.013 3.974,-56.805 -10.347,-98.6c-4.806,-14.027 -6.829,-23.262 -3.135,-32.606c3.694,-9.344 14.201,-15.544 28.881,-13.818c18.349,2.159 54.374,10.974 63.255,13.884c7.978,2.613 35.844,11.711 46.486,30.216c10.642,18.506 7.876,38.715 -10.561,77.075c-17.209,35.804 -39.66,60.177 -42.622,63.314c3.519,4.173 6.742,8.604 9.637,13.259c12.857,-8.076 47.019,-32.212 70.862,-69.372c8.008,-12.479 13.989,-19.801 23.606,-22.71c9.617,-2.909 21.003,1.473 28.768,14.05c9.706,15.721 25.174,49.429 28.411,58.197c2.906,7.875 13.086,35.365 5.194,55.2c-7.893,19.835 -25.448,30.219 -66.963,39.598c-36.134,8.162 -67.309,6.578 -74.838,6.025c-1,-5.273 -2.367,-10.418 -4.072,-15.406c15.38,5.167 54.526,15.872 97.145,11.307c14.743,-1.579 24.197,-1.506 32.491,4.166c8.293,5.673 12.012,17.292 7.076,31.224c-6.17,17.415 -22.748,50.592 -27.553,58.608c-4.316,7.2 -19.361,32.359 -39.764,38.636c-20.404,6.278 -39.498,-0.896 -72.82,-27.374c-27.148,-21.572 -44.918,-45.108 -50.595,-53.127c-5.025,2.683 -10.274,4.999 -15.713,6.912c5.996,16.145 21.846,52.01 50.894,81.555c10.396,10.574 16.21,18.028 16.916,28.051c0.706,10.023 -6.09,20.155 -20.074,24.94c-17.481,5.982 -53.779,13.598 -63.045,14.812c-8.324,1.09 -37.385,4.926 -54.979,-7.165c-17.593,-12.091 -23.831,-31.51 -23.778,-74.071c0.041,-33.591 6.994,-61.43 9.936,-71.711c-5.091,-2.298 -9.982,-4.96 -14.64,-7.954c-8.953,15.113 -26.575,49.548 -31.354,90.147c-1.734,14.726 -3.905,23.927 -11.277,30.754c-7.372,6.827 -19.527,7.873 -32.016,-0.033c-15.61,-9.883 -44.278,-33.413 -51.027,-39.878c-6.062,-5.807 -27.252,-26.062 -28.843,-47.35c-1.591,-21.289 9.644,-38.312 42.86,-64.924c26.689,-21.383 53.217,-33.447 62.651,-37.377c-1.337,-5.511 -2.271,-11.179 -2.768,-16.971c-17.025,2.256 -55.587,9.754 -90.898,31.574c-12.613,7.795 -21.171,11.813 -31.101,10.281c-9.93,-1.532 -18.304,-10.404 -19.873,-25.101c-1.96,-18.372 -1.345,-55.454 -0.476,-64.759c0.782,-8.359 3.479,-37.548 19.167,-52.026c15.688,-14.477 36.007,-16.257 77.499,-6.777c35.454,8.101 62.538,22.608 69.714,26.686Z" style="fill:#f20d0d;" />
    </g>

  </g>
</svg>
