<svg xmlns="http://www.w3.org/2000/svg" viewBox="0 0 786 786" style="fill-rule:evenodd;clip-rule:evenodd;stroke-linejoin:round;stroke-miterlimit:2;">
  <g id="VENTILADOR">
    <path id="BASE" d="M669.372,263.803c16.204,40.068 25.128,83.849 25.128,129.697c0,191.239 -155.261,346.5 -346.5,346.5c-191.239,0 -346.5,-155.261 -346.5,-346.5c0,-191.239 155.261,-346.5 346.5,-346.5c29.888,0 58.897,3.792 86.572,10.922l261.783,0c3.516,-8.184 11.652,-13.922 21.118,-13.922l45.947,0c12.679,0 22.973,10.294 22.973,22.973l0,187.778c0,12.679 -10.294,22.973 -22.973,22.973l-45.947,0c-9.466,0 -17.602,-5.737 -21.118,-13.921l-26.983,0Zm-321.372,-167.803c-164.195,0 -297.5,133.305 -297.5,297.5c0,164.195 133.305,297.5 297.5,297.5c164.195,0 297.5,-133.305 297.5,-297.5c0,-164.195 -133.305,-297.5 -297.5,-297.5Z" style="fill:#f20d0d;" />
    <path id="HELICE" d="M259.073,463.807c-7.176,4.078 -34.26,18.585 -69.714,26.686c-41.492,9.48 -61.811,7.7 -77.499,-6.777c-15.688,-14.478 -18.385,-43.667 -19.167,-52.026c-0.869,-9.305 -1.484,-46.387 0.476,-64.759c1.569,-14.697 9.943,-23.569 19.873,-25.101c9.93,-1.532 18.488,2.486 31.101,10.281c35.311,21.82 73.873,29.318 90.898,31.574c0.497,-5.792 1.431,-11.46 2.768,-16.971c-9.434,-3.93 -35.962,-15.994 -62.651,-37.377c-33.216,-26.612 -44.451,-43.635 -42.86,-64.924c1.591,-21.288 22.781,-41.543 28.843,-47.35c6.749,-6.465 35.417,-29.995 51.027,-39.878c12.489,-7.906 24.644,-6.86 32.016,-0.033c7.372,6.827 9.543,16.028 11.277,30.754c4.779,40.599 22.401,75.034 31.354,90.147c4.658,-2.994 9.549,-5.656 14.64,-7.954c-2.942,-10.281 -9.895,-38.12 -9.936,-71.711c-0.053,-42.561 6.185,-61.98 23.778,-74.071c17.594,-12.091 46.655,-8.255 54.979,-7.165c9.266,1.214 45.564,8.83 63.045,14.812c13.984,4.785 20.78,14.917 20.074,24.94c-0.706,10.023 -6.52,17.477 -16.916,28.051c-29.048,29.545 -44.898,65.41 -50.894,81.555c5.439,1.913 10.688,4.229 15.713,6.912c5.677,-8.019 23.447,-31.555 50.595,-53.127c33.322,-26.478 52.416,-33.652 72.82,-27.374c20.403,6.277 35.448,31.436 39.764,38.636c4.805,8.016 21.383,41.193 27.553,58.608c4.936,13.932 1.217,25.551 -7.076,31.224c-8.294,5.672 -17.748,5.745 -32.491,4.166c-42.619,-4.565 -81.765,6.14 -97.145,11.307c1.705,4.988 3.072,10.133 4.072,15.406c7.529,-0.553 38.704,-2.137 74.838,6.025c41.515,9.379 59.07,19.763 66.963,39.598c7.892,19.835 -2.288,47.325 -5.194,55.2c-3.237,8.768 -18.705,42.476 -28.411,58.197c-7.765,12.577 -19.151,16.959 -28.768,14.05c-9.617,-2.909 -15.598,-10.231 -23.606,-22.71c-23.843,-37.16 -58.005,-61.296 -70.862,-69.372c-2.895,4.655 -6.118,9.086 -9.637,13.259c2.962,3.137 25.413,27.51 42.622,63.314c18.437,38.36 21.203,58.569 10.561,77.075c-10.642,18.505 -38.508,27.603 -46.486,30.216c-8.881,2.91 -44.906,11.725 -63.255,13.884c-14.68,1.726 -25.187,-4.474 -28.881,-13.818c-3.694,-9.344 -1.671,-18.579 3.135,-32.606c14.321,-41.795 12.004,-83.587 10.347,-98.655c-4.83,0.629 -9.756,0.954 -14.756,0.954c-0.29,0 -0.58,-0.001 -0.87,-0.004c-0.715,5.077 -5.752,37.382 -22.605,72.669c-18.343,38.406 -32.359,53.224 -53.45,56.526c-21.09,3.302 -45.641,-12.715 -52.677,-17.294c-7.833,-5.098 -37.276,-27.651 -50.456,-40.598c-10.544,-10.359 -12.295,-22.432 -7.328,-31.166c4.968,-8.734 13.433,-12.944 27.376,-17.988c40.425,-14.622 70.977,-41.519 82.457,-52.847c-4.087,-3.836 -7.89,-7.971 -11.374,-12.37Zm88.927,-127.45c-31.538,0 -57.143,25.605 -57.143,57.143c0,31.538 25.605,57.143 57.143,57.143c31.538,0 57.142,-25.605 57.142,-57.143c0,-31.538 -25.604,-57.143 -57.142,-57.143Z" style="fill:#f20d0d;" />
  </g>
</svg>
